<svg width="45" height="45" viewBox="0 0 45 45" fill="none" xmlns="http://www.w3.org/2000/svg">
<path d="M22.5003 15.7766C25.3085 15.7766 27.5853 13.5016 27.5853 10.6936C27.5853 7.88637 25.3086 5.60938 22.5003 5.60938C19.6934 5.60938 17.415 7.88637 17.415 10.6936C17.415 13.5016 19.6934 15.7766 22.5003 15.7766Z" fill="#1537C8"/>
<path d="M19.0771 32.8488L20.5268 30.7904L17.9929 27.8516L15.2252 31.7815C14.7619 32.4394 14.7679 33.319 15.2406 33.9703L18.6091 38.6133C18.9773 39.1207 19.5515 39.3903 20.1339 39.3901C20.5171 39.3901 20.9037 39.2735 21.2376 39.0313C22.079 38.4209 22.266 37.244 21.6557 36.4028L19.0771 32.8488Z" fill="#1537C8"/>
<path d="M27.1579 27.6772L24.6238 30.6161L26.1962 32.8489L23.6176 36.403C23.0073 37.2444 23.1944 38.4211 24.0357 39.0315C24.3696 39.2737 24.7561 39.3903 25.1394 39.3903C25.7217 39.3903 26.296 39.1208 26.6642 38.6135L30.0329 33.9705C30.5053 33.3192 30.5116 32.4396 30.0483 31.7818L27.1579 27.6772Z" fill="#1537C8"/>
<path d="M32.7656 23.7392C32.4735 23.1069 29.798 17.5323 25.9044 16.5268C24.8727 16.2608 23.7313 16.1222 22.5115 16.1147C22.5079 16.1147 22.5043 16.1147 22.5006 16.1147H22.5005C22.5004 16.1147 22.5002 16.1147 22.5001 16.1147C22.5 16.1147 22.4999 16.1147 22.4998 16.1147C22.4961 16.1147 22.4925 16.1147 22.4887 16.1147C21.2691 16.1222 20.1274 16.2608 19.0952 16.527C15.2024 17.5323 12.527 23.1069 12.2347 23.7392C11.7986 24.6827 12.2099 25.8011 13.1533 26.2371C13.4091 26.3554 13.6775 26.4112 13.9418 26.4112C14.6527 26.4112 15.3334 26.0061 15.6514 25.3183C16.1919 24.1486 17.1908 22.5469 18.2459 21.4326C18.215 21.6405 18.1986 21.8532 18.1986 22.0697V25.4774H26.8019V22.0697C26.8019 21.8503 26.7853 21.6347 26.7536 21.4242C27.8005 22.5267 28.7892 24.1153 29.3488 25.3183C29.6668 26.0062 30.3472 26.4112 31.0583 26.4112C31.3225 26.4112 31.591 26.3553 31.8467 26.2371C32.7904 25.8011 33.2017 24.6827 32.7656 23.7392Z" fill="#1537C8"/>
</svg>
