<svg width="24" height="24" viewBox="0 0 24 24" fill="none" xmlns="http://www.w3.org/2000/svg" data-reactroot="">
<path stroke-width="1" stroke="#221b38" d="M10.856 10.144L7.99927 13.0007"></path>
<path stroke-width="1" stroke="#221b38" fill="none" d="M7.99924 13.0008L7.28506 12.2866L3 16.5717L4.42835 18L8.71341 13.715L7.99924 13.0008Z"></path>
<path stroke-width="1" stroke="#221b38" fill="none" d="M17.4298 9.42982C15.4577 11.402 12.58 11.7217 11.0022 10.144C9.42453 8.56628 9.74428 5.68856 11.7164 3.71642C13.6886 1.74428 16.5663 1.42453 18.144 3.00224C19.7217 4.57996 19.402 7.45768 17.4298 9.42982Z"></path>
<path stroke-width="1" stroke="#221b38" fill="none" d="M14.364 21.636C14.8492 22.1213 15.636 22.1213 16.1213 21.636L17 20.7574L15.2426 19L14.364 19.8787C13.8787 20.364 13.8787 21.1508 14.364 21.636Z"></path>
<path stroke-width="1" stroke="#221b38" fill="none" d="M17 20.7574L15.2427 19L17 15L21 19L17 20.7574Z"></path>
</svg>
