<svg width="24" height="24" viewBox="0 0 24 24" fill="none" xmlns="http://www.w3.org/2000/svg"><rect width="24" height="24" fill="none" rx="0" ry="0"></rect><path fill-rule="evenodd" clip-rule="evenodd" d="M8.12817 3.5V4.5H6.12817V3.5C6.12817 2.95 6.57817 2.5 7.12817 2.5C7.67817 2.5 8.12817 2.95 8.12817 3.5ZM18.1282 4.5H19.1282C20.7782 4.5 22.1282 5.85 22.1282 7.5V10.5H2.12817V7.5C2.12817 5.85 3.47817 4.5 5.12817 4.5H6.12817V6.5C6.12817 7.05 6.57817 7.5 7.12817 7.5C7.67817 7.5 8.12817 7.05 8.12817 6.5V4.5H16.1282V6.5C16.1282 7.05 16.5782 7.5 17.1282 7.5C17.6782 7.5 18.1282 7.05 18.1282 6.5V4.5ZM18.1282 4.5H16.1282V3.5C16.1282 2.95 16.5782 2.5 17.1282 2.5C17.6782 2.5 18.1282 2.95 18.1282 3.5V4.5ZM2.12817 12.5H22.1282V18.5C22.1282 20.15 20.7782 21.5 19.1282 21.5H5.12817C3.47817 21.5 2.12817 20.15 2.12817 18.5V12.5Z" fill="#29303A"></path></svg>