<svg width="24" height="24" viewBox="0 0 24 24" fill="none" xmlns="http://www.w3.org/2000/svg"><rect width="24" height="24" fill="none" rx="0" ry="0"></rect><path fill-rule="evenodd" clip-rule="evenodd" d="M18.8 8.85C18.68 5.35 15.64 2.5 12.01 2.5C8.24995 2.5 5.19995 5.44 5.19995 9.05C5.19995 9.83 5.37995 10.7 5.72995 11.54L5.68995 11.56L10.77 20.78C11.01 21.22 11.48 21.5 12 21.5C12.52 21.5 12.99 21.22 13.23 20.78L17.81 12.46L17.83 12.47L18.32 11.54L18.28 11.52C18.64 10.66 18.82 9.7 18.8 8.85ZM14.2 9.3C14.2 10.51 13.21 11.5 12 11.5C10.79 11.5 9.79995 10.51 9.79995 9.3C9.79995 8.09 10.79 7.1 12 7.1C13.21 7.1 14.2 8.09 14.2 9.3Z" fill="#29303A"></path></svg>