<svg width="45" height="45" viewBox="0 0 45 45" fill="none" xmlns="http://www.w3.org/2000/svg">
<g clip-path="url(#clip0)">
<path d="M44.1232 13.7664C44.6494 13.5793 45.0006 13.0811 45 12.5226C44.9993 11.9642 44.6469 11.4668 44.1203 11.281L22.9387 3.80757C22.6549 3.70737 22.3452 3.70737 22.0614 3.80757L0.879786 11.281C0.353146 11.4667 0.000704179 11.9642 1.05355e-06 12.5226C-0.000702071 13.0811 0.350597 13.5793 0.876798 13.7664L9.26763 16.7494V25.3492C9.26763 26.7686 10.7483 27.9689 13.6686 28.9167C16.214 29.7429 19.3504 30.1979 22.5001 30.1979C25.6497 30.1979 28.7861 29.7429 31.3316 28.9167C34.2519 27.9689 35.7325 26.7686 35.7325 25.3492V16.7494L39.1969 15.5178V27.4343C37.6563 27.9791 36.5492 29.4494 36.5492 31.1743C36.5492 32.899 37.6563 34.3694 39.1969 34.9142V39.949C39.1969 40.6771 39.7872 41.2673 40.5153 41.2673C41.2434 41.2673 41.8337 40.6771 41.8337 39.949V34.9142C43.3743 34.3694 44.4814 32.8991 44.4814 31.1743C44.4814 29.4495 43.3743 27.9791 41.8337 27.4343V14.5803L44.1232 13.7664ZM40.5152 32.5035C39.7822 32.5035 39.1859 31.9072 39.1859 31.1742C39.1859 30.4412 39.7822 29.8448 40.5152 29.8448C41.2482 29.8448 41.8446 30.4412 41.8446 31.1742C41.8446 31.9072 41.2482 32.5035 40.5152 32.5035ZM22.5 6.44877L39.7326 12.529L22.5 18.6552L5.26737 12.5289L22.5 6.44877ZM33.0957 25.1505C32.8431 25.4052 31.9385 26.0152 29.8969 26.5977C27.7189 27.219 25.0919 27.5612 22.5 27.5612C19.9081 27.5612 17.2812 27.219 15.1031 26.5977C13.0615 26.0152 12.1569 25.4053 11.9043 25.1505V17.6867L22.0584 21.2966C22.2012 21.3474 22.3506 21.3728 22.4999 21.3728C22.6493 21.3728 22.7987 21.3474 22.9415 21.2966L33.0956 17.6867V25.1505H33.0957Z" fill="#1537C8"/>
</g>
<defs>
<clipPath id="clip0">
<rect width="45" height="45" fill="white"/>
</clipPath>
</defs>
</svg>
